<svg viewBox="0 0 500 500" xml:space="preserve" xmlns="http://www.w3.org/2000/svg"><g clip-rule="evenodd" fill="none" fill-rule="evenodd" stroke="#ffffff" stroke-linecap="round" stroke-linejoin="round" stroke-miterlimit="2.613" stroke-width="10" class="stroke-130b7a"><path d="m437.485 304.246-40.071 63.837M397.414 368.083c-5.066 8.015-10.936 16.389-19.102 21.081M378.313 389.164l-55.09 31.919M323.223 421.083c-20.957 11.904-30.757 6.977-28.196-19.891M295.026 401.192l5.62-60.543M300.646 340.649c.913-9.772 4.733-18.16 8.471-24.112M309.117 316.537l69.985-108.533M336.012 334.601c5.468-7.959 16.666-10.104 25.275-4.845 8.9 5.385 11.82 16.555 6.533 24.971M368.152 354.519c4.318-6.34 13.178-8.069 20.084-3.89 7.087 4.291 9.413 13.219 5.191 19.904M309.823 319.25c4.374-6.367 13.357-8.111 20.251-3.876 7.17 4.347 9.551 13.316 5.287 20.043M297.311 376.402a83.21 83.21 0 0 1 27.919 10.547c7.516 4.596 14.271 10.368 19.932 17.123M434.177 380.444v66.26M434.177 446.704c0 15.517-13.053 28.292-28.832 28.292M405.345 474.996H91.264M91.264 474.996c-15.738 0-28.749-12.692-28.749-28.292"></path><path d="M62.515 446.704V138.201L187.048 25.004h218.297M405.345 25.004c15.863 0 28.832 12.79 28.832 28.292M434.177 53.296v205.798M192.778 25.004V129.37"></path><path d="M192.778 129.37c0 8.305-6.977 15.143-15.378 15.143M177.4 144.513H62.515M267.814 73.007h108.892M376.706 73.007c3.737 0 6.77 3.28 6.77 7.336M383.476 80.343v61.983M383.476 142.326c0 4.056-3.032 7.322-6.77 7.322M376.706 149.648H267.814M267.814 149.648c-3.766 0-6.797-3.267-6.797-7.322M261.018 142.326V80.343M261.018 80.343c0-4.056 3.031-7.336 6.797-7.336M107.957 215.465h214.006M107.957 316.163h144.106M107.957 416.861h144.106"></path></g></svg>